<?xml version="1.0" standalone="no"?>
<!DOCTYPE svg PUBLIC "-//W3C//DTD SVG 20010904//EN"
 "http://www.w3.org/TR/2001/REC-SVG-20010904/DTD/svg10.dtd">
<svg version="1.0" xmlns="http://www.w3.org/2000/svg"
 width="430.000000pt" height="330.000000pt" viewBox="0 0 430.000000 330.000000"
 preserveAspectRatio="xMidYMid meet">

<g transform="translate(0.000000,330.000000) scale(0.100000,-0.100000)"
fill="#000000" stroke="none">
<path d="M0 1650 l0 -1650 2150 0 2150 0 0 1650 0 1650 -2150 0 -2150 0 0
-1650z m2787 685 c63 -19 136 -82 168 -146 27 -53 49 -169 43 -233 l-3 -42 80
81 c88 89 182 156 299 211 63 30 84 36 119 31 46 -6 87 -43 87 -78 0 -59 -42
-95 -265 -227 -144 -85 -173 -105 -248 -179 -86 -85 -84 -88 98 -185 161 -85
258 -153 344 -239 123 -124 159 -224 108 -300 -30 -46 -80 -69 -148 -69 -98 0
-141 29 -349 240 l-186 188 -18 -141 c-30 -230 -52 -291 -116 -317 -58 -24
-134 10 -164 73 -17 37 -142 554 -177 737 -32 166 -32 343 0 424 42 107 142
183 242 185 19 1 58 -6 86 -14z m-644 -56 c52 -14 101 -60 125 -117 36 -83 55
-256 49 -427 -9 -207 -73 -580 -119 -686 -42 -99 -117 -138 -202 -105 -82 32
-216 189 -297 349 -61 120 -68 110 -62 -93 5 -144 5 -145 -24 -199 -38 -74
-70 -96 -138 -96 -44 0 -59 5 -92 31 -55 44 -91 118 -105 212 -18 123 4 703
32 837 28 135 80 241 135 272 76 43 158 19 221 -64 47 -61 69 -130 114 -350
62 -302 99 -457 115 -472 7 -7 21 -11 29 -8 23 9 21 53 -11 246 -21 130 -27
201 -28 326 0 146 2 164 23 211 28 62 76 111 128 129 48 17 59 18 107 4z
m-1154 -28 c44 -23 91 -78 116 -136 31 -75 29 -160 -14 -525 -53 -445 -57
-465 -91 -504 -53 -58 -144 -34 -180 47 -21 47 -130 503 -155 641 -19 111 -19
258 -1 320 46 152 194 223 325 157z"/>
<path d="M2753 2224 c-3 -10 8 -29 32 -54 28 -28 42 -55 54 -102 13 -51 21
-64 39 -66 20 -3 22 1 22 36 0 61 -26 132 -61 168 -35 36 -76 45 -86 18z"/>
<path d="M3436 2194 c-31 -31 26 -84 67 -62 28 14 17 50 -20 65 -27 11 -34 10
-47 -3z"/>
<path d="M3410 1274 c-14 -15 -11 -21 57 -109 49 -63 73 -70 73 -22 0 69 -99
169 -130 131z"/>
<path d="M2074 2195 c-9 -22 20 -61 67 -92 50 -33 67 -22 49 31 -20 60 -100
103 -116 61z"/>
<path d="M1513 2193 c-27 -11 -13 -53 35 -103 54 -56 82 -64 82 -25 0 74 -68
148 -117 128z"/>
<path d="M930 2161 c0 -10 11 -30 25 -45 13 -14 29 -45 35 -69 12 -50 22 -69
38 -75 8 -2 12 14 12 52 0 63 -12 101 -42 134 -27 27 -68 30 -68 3z"/>
</g>
</svg>
